<mxfile host="app.diagrams.net" modified="2024-07-18T01:18:55.382Z" agent="Mozilla/5.0 (Windows NT 10.0; Win64; x64) AppleWebKit/537.36 (KHTML, like Gecko) Chrome/126.0.0.0 Safari/537.36" etag="m5gCBfMA8sVHGfzHHJDw" version="24.6.5" type="github" pages="3">
  <diagram name="Page-1" id="822b0af5-4adb-64df-f703-e8dfc1f81529">
    <mxGraphModel dx="1434" dy="746" grid="1" gridSize="10" guides="1" tooltips="1" connect="1" arrows="1" fold="1" page="1" pageScale="1" pageWidth="1100" pageHeight="850" background="none" math="0" shadow="0">
      <root>
        <mxCell id="0" />
        <mxCell id="1" parent="0" />
        <mxCell id="YCPt1_klVUv4p9TA1poG-1" value="" style="sketch=0;outlineConnect=0;fontColor=#232F3E;gradientColor=none;fillColor=#C925D1;strokeColor=none;dashed=0;verticalLabelPosition=bottom;verticalAlign=top;align=center;html=1;fontSize=12;fontStyle=0;aspect=fixed;pointerEvents=1;shape=mxgraph.aws4.elasticache_for_memcached;" vertex="1" parent="1">
          <mxGeometry x="970" y="270" width="78" height="69" as="geometry" />
        </mxCell>
        <mxCell id="YCPt1_klVUv4p9TA1poG-2" value="" style="sketch=0;points=[[0,0,0],[0.25,0,0],[0.5,0,0],[0.75,0,0],[1,0,0],[0,1,0],[0.25,1,0],[0.5,1,0],[0.75,1,0],[1,1,0],[0,0.25,0],[0,0.5,0],[0,0.75,0],[1,0.25,0],[1,0.5,0],[1,0.75,0]];outlineConnect=0;fontColor=#232F3E;fillColor=#8C4FFF;strokeColor=#ffffff;dashed=0;verticalLabelPosition=bottom;verticalAlign=top;align=center;html=1;fontSize=12;fontStyle=0;aspect=fixed;shape=mxgraph.aws4.resourceIcon;resIcon=mxgraph.aws4.serverless;" vertex="1" parent="1">
          <mxGeometry x="870" y="110" width="78" height="78" as="geometry" />
        </mxCell>
        <mxCell id="YCPt1_klVUv4p9TA1poG-3" value="" style="image;aspect=fixed;html=1;points=[];align=center;fontSize=12;image=img/lib/azure2/compute/App_Services.svg;" vertex="1" parent="1">
          <mxGeometry x="470" y="200" width="64" height="64" as="geometry" />
        </mxCell>
        <mxCell id="YCPt1_klVUv4p9TA1poG-5" value="" style="image;aspect=fixed;html=1;points=[];align=center;fontSize=12;image=img/lib/azure2/compute/Virtual_Machine.svg;" vertex="1" parent="1">
          <mxGeometry x="400" y="370" width="69" height="64" as="geometry" />
        </mxCell>
      </root>
    </mxGraphModel>
  </diagram>
  <diagram id="63iUtj3ixgHL8nwI6GV3" name="第 2 页">
    <mxGraphModel dx="2261" dy="1915" grid="1" gridSize="10" guides="1" tooltips="1" connect="1" arrows="1" fold="1" page="1" pageScale="1" pageWidth="827" pageHeight="1169" math="0" shadow="0">
      <root>
        <mxCell id="0" />
        <mxCell id="1" parent="0" />
        <mxCell id="IVCExZkeeq3PMKc6NRR8-13" value="" style="rounded=0;whiteSpace=wrap;html=1;fillColor=#f5f5f5;gradientColor=#b3b3b3;strokeColor=#666666;" vertex="1" parent="1">
          <mxGeometry x="100" y="370" width="550" height="130" as="geometry" />
        </mxCell>
        <mxCell id="IVCExZkeeq3PMKc6NRR8-16" style="edgeStyle=orthogonalEdgeStyle;rounded=0;orthogonalLoop=1;jettySize=auto;html=1;entryX=0;entryY=0.5;entryDx=0;entryDy=0;" edge="1" parent="1" source="IVCExZkeeq3PMKc6NRR8-12" target="IVCExZkeeq3PMKc6NRR8-4">
          <mxGeometry relative="1" as="geometry" />
        </mxCell>
        <mxCell id="IVCExZkeeq3PMKc6NRR8-17" value="NAT网关?" style="edgeLabel;html=1;align=center;verticalAlign=middle;resizable=0;points=[];" vertex="1" connectable="0" parent="IVCExZkeeq3PMKc6NRR8-16">
          <mxGeometry x="-0.3" y="1" relative="1" as="geometry">
            <mxPoint x="7" y="1" as="offset" />
          </mxGeometry>
        </mxCell>
        <mxCell id="IVCExZkeeq3PMKc6NRR8-12" value="" style="rounded=0;whiteSpace=wrap;html=1;fillColor=#f5f5f5;strokeColor=#666666;gradientColor=#b3b3b3;" vertex="1" parent="1">
          <mxGeometry x="140" y="-140" width="410" height="450" as="geometry" />
        </mxCell>
        <mxCell id="IVCExZkeeq3PMKc6NRR8-4" value="" style="rounded=0;whiteSpace=wrap;html=1;fillColor=#f8cecc;strokeColor=#b85450;" vertex="1" parent="1">
          <mxGeometry x="730" y="-140" width="210" height="450" as="geometry" />
        </mxCell>
        <mxCell id="DbODdCSy0UhFMQDZVK8--1" value="&lt;b&gt;云服务器 01&lt;/b&gt;&lt;div&gt;&lt;div&gt;&lt;br&gt;&lt;/div&gt;&lt;div&gt;&lt;span style=&quot;text-align: left;&quot;&gt;内网：172.17.0.9&lt;/span&gt;&lt;br&gt;&lt;/div&gt;&lt;/div&gt;&lt;div&gt;&lt;span style=&quot;text-align: left;&quot;&gt;公网：110.40.174.132&amp;nbsp;&amp;nbsp;&lt;/span&gt;&lt;span style=&quot;text-align: left;&quot;&gt;&lt;br&gt;&lt;/span&gt;&lt;/div&gt;&lt;div&gt;&lt;span style=&quot;text-align: left;&quot;&gt;&lt;br&gt;&lt;/span&gt;&lt;/div&gt;&lt;div style=&quot;text-align: left;&quot;&gt;&lt;br&gt;&lt;/div&gt;&lt;div style=&quot;text-align: left;&quot;&gt;nginx&lt;/div&gt;&lt;div style=&quot;text-align: left;&quot;&gt;&lt;br&gt;&lt;/div&gt;&lt;div style=&quot;text-align: left;&quot;&gt;html 01&lt;/div&gt;&lt;div style=&quot;text-align: left;&quot;&gt;html02&lt;/div&gt;" style="rounded=0;whiteSpace=wrap;html=1;fillColor=#d5e8d4;strokeColor=#82b366;" parent="1" vertex="1">
          <mxGeometry x="-100" y="-55" width="140" height="305" as="geometry" />
        </mxCell>
        <mxCell id="IVCExZkeeq3PMKc6NRR8-2" style="edgeStyle=orthogonalEdgeStyle;rounded=0;orthogonalLoop=1;jettySize=auto;html=1;entryX=0;entryY=0.5;entryDx=0;entryDy=0;" edge="1" parent="1" source="DbODdCSy0UhFMQDZVK8--2" target="DbODdCSy0UhFMQDZVK8--1">
          <mxGeometry relative="1" as="geometry" />
        </mxCell>
        <mxCell id="IVCExZkeeq3PMKc6NRR8-20" value="域名/IP" style="edgeLabel;html=1;align=center;verticalAlign=middle;resizable=0;points=[];" vertex="1" connectable="0" parent="IVCExZkeeq3PMKc6NRR8-2">
          <mxGeometry x="-0.5375" relative="1" as="geometry">
            <mxPoint y="1" as="offset" />
          </mxGeometry>
        </mxCell>
        <mxCell id="DbODdCSy0UhFMQDZVK8--2" value="Actor" style="shape=umlActor;verticalLabelPosition=bottom;verticalAlign=top;html=1;outlineConnect=0;" parent="1" vertex="1">
          <mxGeometry x="-290" y="67.5" width="30" height="60" as="geometry" />
        </mxCell>
        <mxCell id="DbODdCSy0UhFMQDZVK8--3" value="" style="image;points=[];aspect=fixed;html=1;align=center;shadow=0;dashed=0;image=img/lib/allied_telesis/security/POS.svg;" parent="1" vertex="1">
          <mxGeometry x="-308.9" y="154" width="67.8" height="72" as="geometry" />
        </mxCell>
        <mxCell id="DbODdCSy0UhFMQDZVK8--27" value="&lt;b&gt;云 Mysql&lt;/b&gt;&lt;div&gt;&lt;span style=&quot;text-align: left;&quot;&gt;&lt;br&gt;&lt;/span&gt;&lt;/div&gt;&lt;div&gt;&lt;span style=&quot;text-align: left;&quot;&gt;内网：172.17.0.14&lt;/span&gt;&lt;br&gt;&lt;/div&gt;&lt;div style=&quot;text-align: left;&quot;&gt;公网：无&lt;/div&gt;" style="rounded=0;whiteSpace=wrap;html=1;" parent="1" vertex="1">
          <mxGeometry x="320" y="395" width="140" height="70" as="geometry" />
        </mxCell>
        <mxCell id="DbODdCSy0UhFMQDZVK8--28" value="&lt;b&gt;云 Redis&lt;/b&gt;&lt;div&gt;&lt;span style=&quot;text-align: left;&quot;&gt;&lt;br&gt;&lt;/span&gt;&lt;/div&gt;&lt;div&gt;&lt;span style=&quot;text-align: left;&quot;&gt;内网：172.17.0.7&lt;/span&gt;&lt;br&gt;&lt;/div&gt;&lt;div style=&quot;text-align: left;&quot;&gt;公网：无&lt;/div&gt;" style="rounded=0;whiteSpace=wrap;html=1;" parent="1" vertex="1">
          <mxGeometry x="150" y="390" width="140" height="80" as="geometry" />
        </mxCell>
        <mxCell id="DbODdCSy0UhFMQDZVK8--30" value="&lt;b&gt;云服务器02 (&lt;/b&gt;&lt;b&gt;自建RbtMQ&lt;/b&gt;&lt;b&gt;)&lt;/b&gt;&lt;br&gt;&lt;div&gt;&lt;span style=&quot;text-align: left;&quot;&gt;&lt;br&gt;&lt;/span&gt;&lt;/div&gt;&lt;div&gt;&lt;span style=&quot;text-align: left;&quot;&gt;内网：172.17.0.7&lt;/span&gt;&lt;br&gt;&lt;/div&gt;&lt;div style=&quot;text-align: left;&quot;&gt;&amp;nbsp; &amp;nbsp; &amp;nbsp; &amp;nbsp;公网：无&lt;/div&gt;" style="rounded=0;whiteSpace=wrap;html=1;" parent="1" vertex="1">
          <mxGeometry x="500" y="395" width="140" height="80" as="geometry" />
        </mxCell>
        <mxCell id="DbODdCSy0UhFMQDZVK8--31" value="&lt;b&gt;云服务器 02&lt;/b&gt;&lt;div&gt;&lt;div&gt;&lt;br&gt;&lt;/div&gt;&lt;div&gt;&lt;span style=&quot;text-align: left;&quot;&gt;内网：172.17.0.10&lt;/span&gt;&lt;br&gt;&lt;/div&gt;&lt;/div&gt;&lt;div&gt;&lt;span style=&quot;text-align: left;&quot;&gt;公网：无&amp;nbsp;&amp;nbsp;&lt;/span&gt;&lt;span style=&quot;text-align: left;&quot;&gt;&lt;br&gt;&lt;/span&gt;&lt;/div&gt;&lt;div&gt;&lt;span style=&quot;text-align: left;&quot;&gt;&lt;br&gt;&lt;/span&gt;&lt;/div&gt;&lt;div&gt;&lt;span style=&quot;text-align: left;&quot;&gt;&lt;br&gt;&lt;/span&gt;&lt;/div&gt;&lt;div style=&quot;text-align: left;&quot;&gt;java 8001&lt;/div&gt;&lt;div style=&quot;text-align: left;&quot;&gt;java 8002&lt;br&gt;&lt;/div&gt;&lt;div style=&quot;text-align: left;&quot;&gt;java 8003&lt;br&gt;&lt;/div&gt;&lt;div style=&quot;text-align: left;&quot;&gt;java 8004&lt;br&gt;&lt;/div&gt;&lt;div style=&quot;text-align: left;&quot;&gt;java 8005&lt;br&gt;&lt;/div&gt;" style="rounded=0;whiteSpace=wrap;html=1;" parent="1" vertex="1">
          <mxGeometry x="200" y="-110" width="140" height="170" as="geometry" />
        </mxCell>
        <mxCell id="DbODdCSy0UhFMQDZVK8--33" value="&lt;b&gt;云服务器 03&lt;/b&gt;&lt;div&gt;&lt;div&gt;&lt;br&gt;&lt;/div&gt;&lt;div&gt;&lt;span style=&quot;text-align: left;&quot;&gt;内网：172.17.0.11&lt;/span&gt;&lt;br&gt;&lt;/div&gt;&lt;/div&gt;&lt;div&gt;&lt;span style=&quot;text-align: left;&quot;&gt;公网：无&amp;nbsp;&amp;nbsp;&lt;/span&gt;&lt;span style=&quot;text-align: left;&quot;&gt;&lt;br&gt;&lt;/span&gt;&lt;/div&gt;&lt;div&gt;&lt;span style=&quot;text-align: left;&quot;&gt;&lt;br&gt;&lt;/span&gt;&lt;/div&gt;&lt;div&gt;&lt;span style=&quot;text-align: left;&quot;&gt;&lt;br&gt;&lt;/span&gt;&lt;/div&gt;&lt;div&gt;&lt;div style=&quot;text-align: left;&quot;&gt;java 8006&lt;/div&gt;&lt;div style=&quot;text-align: left;&quot;&gt;java 8007&lt;br&gt;&lt;/div&gt;&lt;div style=&quot;text-align: left;&quot;&gt;java 8008&lt;br&gt;&lt;/div&gt;&lt;div style=&quot;text-align: left;&quot;&gt;java 8009&lt;br&gt;&lt;/div&gt;&lt;div style=&quot;text-align: left;&quot;&gt;java 8010&lt;/div&gt;&lt;/div&gt;" style="rounded=0;whiteSpace=wrap;html=1;" parent="1" vertex="1">
          <mxGeometry x="200" y="100" width="140" height="180" as="geometry" />
        </mxCell>
        <mxCell id="DbODdCSy0UhFMQDZVK8--34" value="&lt;b&gt;云服务器 04&lt;/b&gt;&lt;div&gt;&lt;div&gt;&lt;br&gt;&lt;/div&gt;&lt;div&gt;&lt;span style=&quot;text-align: left;&quot;&gt;内网：172.17.0.12&lt;/span&gt;&lt;br&gt;&lt;/div&gt;&lt;/div&gt;&lt;div&gt;&lt;span style=&quot;text-align: left;&quot;&gt;公网：无&amp;nbsp;&amp;nbsp;&lt;/span&gt;&lt;span style=&quot;text-align: left;&quot;&gt;&lt;br&gt;&lt;/span&gt;&lt;/div&gt;&lt;div&gt;&lt;span style=&quot;text-align: left;&quot;&gt;&lt;br&gt;&lt;/span&gt;&lt;/div&gt;&lt;div&gt;&lt;span style=&quot;text-align: left;&quot;&gt;&lt;br&gt;&lt;/span&gt;&lt;/div&gt;&lt;div&gt;&lt;div style=&quot;text-align: left;&quot;&gt;测试环境&lt;/div&gt;&lt;/div&gt;" style="rounded=0;whiteSpace=wrap;html=1;" parent="1" vertex="1">
          <mxGeometry x="380" y="-110" width="130" height="170" as="geometry" />
        </mxCell>
        <mxCell id="IVCExZkeeq3PMKc6NRR8-6" value="..." style="rounded=1;whiteSpace=wrap;html=1;" vertex="1" parent="1">
          <mxGeometry x="780" y="-110" width="100" height="40" as="geometry" />
        </mxCell>
        <mxCell id="IVCExZkeeq3PMKc6NRR8-7" value="微信" style="rounded=1;whiteSpace=wrap;html=1;" vertex="1" parent="1">
          <mxGeometry x="780" y="-45" width="100" height="40" as="geometry" />
        </mxCell>
        <mxCell id="IVCExZkeeq3PMKc6NRR8-8" value="美团" style="rounded=1;whiteSpace=wrap;html=1;" vertex="1" parent="1">
          <mxGeometry x="777" y="30" width="100" height="40" as="geometry" />
        </mxCell>
        <mxCell id="IVCExZkeeq3PMKc6NRR8-9" value="饿了么" style="rounded=1;whiteSpace=wrap;html=1;" vertex="1" parent="1">
          <mxGeometry x="780" y="99" width="100" height="40" as="geometry" />
        </mxCell>
        <mxCell id="IVCExZkeeq3PMKc6NRR8-10" value="抖音" style="rounded=1;whiteSpace=wrap;html=1;" vertex="1" parent="1">
          <mxGeometry x="780" y="170" width="100" height="40" as="geometry" />
        </mxCell>
        <mxCell id="IVCExZkeeq3PMKc6NRR8-11" value="..." style="rounded=1;whiteSpace=wrap;html=1;" vertex="1" parent="1">
          <mxGeometry x="780" y="240" width="100" height="40" as="geometry" />
        </mxCell>
        <mxCell id="IVCExZkeeq3PMKc6NRR8-14" style="edgeStyle=orthogonalEdgeStyle;rounded=0;orthogonalLoop=1;jettySize=auto;html=1;entryX=0.453;entryY=-0.021;entryDx=0;entryDy=0;entryPerimeter=0;" edge="1" parent="1" source="IVCExZkeeq3PMKc6NRR8-12" target="IVCExZkeeq3PMKc6NRR8-13">
          <mxGeometry relative="1" as="geometry" />
        </mxCell>
        <mxCell id="IVCExZkeeq3PMKc6NRR8-15" value="内网IP" style="edgeLabel;html=1;align=center;verticalAlign=middle;resizable=0;points=[];" vertex="1" connectable="0" parent="IVCExZkeeq3PMKc6NRR8-14">
          <mxGeometry x="-0.1841" y="-2" relative="1" as="geometry">
            <mxPoint as="offset" />
          </mxGeometry>
        </mxCell>
        <mxCell id="IVCExZkeeq3PMKc6NRR8-18" style="edgeStyle=orthogonalEdgeStyle;rounded=0;orthogonalLoop=1;jettySize=auto;html=1;entryX=-0.009;entryY=0.529;entryDx=0;entryDy=0;entryPerimeter=0;" edge="1" parent="1" source="DbODdCSy0UhFMQDZVK8--1" target="IVCExZkeeq3PMKc6NRR8-12">
          <mxGeometry relative="1" as="geometry" />
        </mxCell>
        <mxCell id="IVCExZkeeq3PMKc6NRR8-19" value="内网IP" style="edgeLabel;html=1;align=center;verticalAlign=middle;resizable=0;points=[];" vertex="1" connectable="0" parent="IVCExZkeeq3PMKc6NRR8-18">
          <mxGeometry x="-0.2536" relative="1" as="geometry">
            <mxPoint y="1" as="offset" />
          </mxGeometry>
        </mxCell>
      </root>
    </mxGraphModel>
  </diagram>
  <diagram name="第 2 页 的副本" id="xZJa-ql9othhjMwaSW1g">
    <mxGraphModel dx="2261" dy="1915" grid="1" gridSize="10" guides="1" tooltips="1" connect="1" arrows="1" fold="1" page="1" pageScale="1" pageWidth="827" pageHeight="1169" math="0" shadow="0">
      <root>
        <mxCell id="U9QTnsyQGhCHoIQ6oHoL-0" />
        <mxCell id="U9QTnsyQGhCHoIQ6oHoL-1" parent="U9QTnsyQGhCHoIQ6oHoL-0" />
        <mxCell id="U9QTnsyQGhCHoIQ6oHoL-2" value="" style="rounded=0;whiteSpace=wrap;html=1;fillColor=#f5f5f5;gradientColor=#b3b3b3;strokeColor=#666666;" vertex="1" parent="U9QTnsyQGhCHoIQ6oHoL-1">
          <mxGeometry x="100" y="370" width="550" height="130" as="geometry" />
        </mxCell>
        <mxCell id="U9QTnsyQGhCHoIQ6oHoL-3" style="edgeStyle=orthogonalEdgeStyle;rounded=0;orthogonalLoop=1;jettySize=auto;html=1;entryX=0;entryY=0.5;entryDx=0;entryDy=0;" edge="1" parent="U9QTnsyQGhCHoIQ6oHoL-1" source="U9QTnsyQGhCHoIQ6oHoL-5" target="U9QTnsyQGhCHoIQ6oHoL-6">
          <mxGeometry relative="1" as="geometry" />
        </mxCell>
        <mxCell id="U9QTnsyQGhCHoIQ6oHoL-4" value="NAT网关?" style="edgeLabel;html=1;align=center;verticalAlign=middle;resizable=0;points=[];" vertex="1" connectable="0" parent="U9QTnsyQGhCHoIQ6oHoL-3">
          <mxGeometry x="-0.3" y="1" relative="1" as="geometry">
            <mxPoint x="7" y="1" as="offset" />
          </mxGeometry>
        </mxCell>
        <mxCell id="U9QTnsyQGhCHoIQ6oHoL-5" value="" style="rounded=0;whiteSpace=wrap;html=1;fillColor=#f5f5f5;strokeColor=#666666;gradientColor=#b3b3b3;" vertex="1" parent="U9QTnsyQGhCHoIQ6oHoL-1">
          <mxGeometry x="140" y="-140" width="410" height="450" as="geometry" />
        </mxCell>
        <mxCell id="U9QTnsyQGhCHoIQ6oHoL-6" value="" style="rounded=0;whiteSpace=wrap;html=1;fillColor=#f8cecc;strokeColor=#b85450;" vertex="1" parent="U9QTnsyQGhCHoIQ6oHoL-1">
          <mxGeometry x="730" y="-140" width="210" height="450" as="geometry" />
        </mxCell>
        <mxCell id="U9QTnsyQGhCHoIQ6oHoL-7" value="&lt;b&gt;云服务器 01&lt;/b&gt;&lt;div&gt;&lt;div&gt;&lt;br&gt;&lt;/div&gt;&lt;div&gt;&lt;span style=&quot;text-align: left;&quot;&gt;内网：172.17.0.9&lt;/span&gt;&lt;br&gt;&lt;/div&gt;&lt;/div&gt;&lt;div&gt;&lt;span style=&quot;text-align: left;&quot;&gt;公网：110.40.174.132&amp;nbsp;&amp;nbsp;&lt;/span&gt;&lt;span style=&quot;text-align: left;&quot;&gt;&lt;br&gt;&lt;/span&gt;&lt;/div&gt;&lt;div&gt;&lt;span style=&quot;text-align: left;&quot;&gt;&lt;br&gt;&lt;/span&gt;&lt;/div&gt;&lt;div style=&quot;text-align: left;&quot;&gt;&lt;br&gt;&lt;/div&gt;&lt;div style=&quot;text-align: left;&quot;&gt;nginx&lt;/div&gt;&lt;div style=&quot;text-align: left;&quot;&gt;&lt;br&gt;&lt;/div&gt;&lt;div style=&quot;text-align: left;&quot;&gt;html 01&lt;/div&gt;&lt;div style=&quot;text-align: left;&quot;&gt;html02&lt;/div&gt;" style="rounded=0;whiteSpace=wrap;html=1;fillColor=#d5e8d4;strokeColor=#82b366;" vertex="1" parent="U9QTnsyQGhCHoIQ6oHoL-1">
          <mxGeometry x="-100" y="-55" width="140" height="305" as="geometry" />
        </mxCell>
        <mxCell id="U9QTnsyQGhCHoIQ6oHoL-8" style="edgeStyle=orthogonalEdgeStyle;rounded=0;orthogonalLoop=1;jettySize=auto;html=1;entryX=0;entryY=0.5;entryDx=0;entryDy=0;" edge="1" parent="U9QTnsyQGhCHoIQ6oHoL-1" source="U9QTnsyQGhCHoIQ6oHoL-10" target="U9QTnsyQGhCHoIQ6oHoL-7">
          <mxGeometry relative="1" as="geometry" />
        </mxCell>
        <mxCell id="U9QTnsyQGhCHoIQ6oHoL-9" value="域名/IP" style="edgeLabel;html=1;align=center;verticalAlign=middle;resizable=0;points=[];" vertex="1" connectable="0" parent="U9QTnsyQGhCHoIQ6oHoL-8">
          <mxGeometry x="-0.5375" relative="1" as="geometry">
            <mxPoint y="1" as="offset" />
          </mxGeometry>
        </mxCell>
        <mxCell id="U9QTnsyQGhCHoIQ6oHoL-10" value="Actor" style="shape=umlActor;verticalLabelPosition=bottom;verticalAlign=top;html=1;outlineConnect=0;" vertex="1" parent="U9QTnsyQGhCHoIQ6oHoL-1">
          <mxGeometry x="-290" y="67.5" width="30" height="60" as="geometry" />
        </mxCell>
        <mxCell id="U9QTnsyQGhCHoIQ6oHoL-11" value="" style="image;points=[];aspect=fixed;html=1;align=center;shadow=0;dashed=0;image=img/lib/allied_telesis/security/POS.svg;" vertex="1" parent="U9QTnsyQGhCHoIQ6oHoL-1">
          <mxGeometry x="-308.9" y="154" width="67.8" height="72" as="geometry" />
        </mxCell>
        <mxCell id="U9QTnsyQGhCHoIQ6oHoL-12" value="&lt;b&gt;云 Mysql&lt;/b&gt;&lt;div&gt;&lt;span style=&quot;text-align: left;&quot;&gt;&lt;br&gt;&lt;/span&gt;&lt;/div&gt;&lt;div&gt;&lt;span style=&quot;text-align: left;&quot;&gt;内网：172.17.0.14&lt;/span&gt;&lt;br&gt;&lt;/div&gt;&lt;div style=&quot;text-align: left;&quot;&gt;公网：无&lt;/div&gt;" style="rounded=0;whiteSpace=wrap;html=1;" vertex="1" parent="U9QTnsyQGhCHoIQ6oHoL-1">
          <mxGeometry x="320" y="395" width="140" height="70" as="geometry" />
        </mxCell>
        <mxCell id="U9QTnsyQGhCHoIQ6oHoL-13" value="&lt;b&gt;云 Redis&lt;/b&gt;&lt;div&gt;&lt;span style=&quot;text-align: left;&quot;&gt;&lt;br&gt;&lt;/span&gt;&lt;/div&gt;&lt;div&gt;&lt;span style=&quot;text-align: left;&quot;&gt;内网：172.17.0.7&lt;/span&gt;&lt;br&gt;&lt;/div&gt;&lt;div style=&quot;text-align: left;&quot;&gt;公网：无&lt;/div&gt;" style="rounded=0;whiteSpace=wrap;html=1;" vertex="1" parent="U9QTnsyQGhCHoIQ6oHoL-1">
          <mxGeometry x="150" y="390" width="140" height="80" as="geometry" />
        </mxCell>
        <mxCell id="U9QTnsyQGhCHoIQ6oHoL-14" value="&lt;b&gt;云服务器02 (&lt;/b&gt;&lt;b&gt;自建RbtMQ&lt;/b&gt;&lt;b&gt;)&lt;/b&gt;&lt;br&gt;&lt;div&gt;&lt;span style=&quot;text-align: left;&quot;&gt;&lt;br&gt;&lt;/span&gt;&lt;/div&gt;&lt;div&gt;&lt;span style=&quot;text-align: left;&quot;&gt;内网：172.17.0.7&lt;/span&gt;&lt;br&gt;&lt;/div&gt;&lt;div style=&quot;text-align: left;&quot;&gt;&amp;nbsp; &amp;nbsp; &amp;nbsp; &amp;nbsp;公网：无&lt;/div&gt;" style="rounded=0;whiteSpace=wrap;html=1;" vertex="1" parent="U9QTnsyQGhCHoIQ6oHoL-1">
          <mxGeometry x="500" y="395" width="140" height="80" as="geometry" />
        </mxCell>
        <mxCell id="U9QTnsyQGhCHoIQ6oHoL-15" value="&lt;b&gt;云服务器 02&lt;/b&gt;&lt;div&gt;&lt;div&gt;&lt;br&gt;&lt;/div&gt;&lt;div&gt;&lt;span style=&quot;text-align: left;&quot;&gt;内网：172.17.0.10&lt;/span&gt;&lt;br&gt;&lt;/div&gt;&lt;/div&gt;&lt;div&gt;&lt;span style=&quot;text-align: left;&quot;&gt;公网：无&amp;nbsp;&amp;nbsp;&lt;/span&gt;&lt;span style=&quot;text-align: left;&quot;&gt;&lt;br&gt;&lt;/span&gt;&lt;/div&gt;&lt;div&gt;&lt;span style=&quot;text-align: left;&quot;&gt;&lt;br&gt;&lt;/span&gt;&lt;/div&gt;&lt;div&gt;&lt;span style=&quot;text-align: left;&quot;&gt;&lt;br&gt;&lt;/span&gt;&lt;/div&gt;&lt;div style=&quot;text-align: left;&quot;&gt;java 8001 - xpos&lt;/div&gt;&lt;div style=&quot;text-align: left;&quot;&gt;java 8002&lt;br&gt;&lt;/div&gt;&lt;div style=&quot;text-align: left;&quot;&gt;java 8003&lt;br&gt;&lt;/div&gt;&lt;div style=&quot;text-align: left;&quot;&gt;java 8004&lt;br&gt;&lt;/div&gt;&lt;div style=&quot;text-align: left;&quot;&gt;java 8005&lt;br&gt;&lt;/div&gt;" style="rounded=0;whiteSpace=wrap;html=1;" vertex="1" parent="U9QTnsyQGhCHoIQ6oHoL-1">
          <mxGeometry x="200" y="-110" width="140" height="170" as="geometry" />
        </mxCell>
        <mxCell id="U9QTnsyQGhCHoIQ6oHoL-16" value="&lt;b&gt;云服务器 03&lt;/b&gt;&lt;div&gt;&lt;div&gt;&lt;br&gt;&lt;/div&gt;&lt;div&gt;&lt;span style=&quot;text-align: left;&quot;&gt;内网：172.17.0.11&lt;/span&gt;&lt;br&gt;&lt;/div&gt;&lt;/div&gt;&lt;div&gt;&lt;span style=&quot;text-align: left;&quot;&gt;公网：无&amp;nbsp;&amp;nbsp;&lt;/span&gt;&lt;span style=&quot;text-align: left;&quot;&gt;&lt;br&gt;&lt;/span&gt;&lt;/div&gt;&lt;div&gt;&lt;span style=&quot;text-align: left;&quot;&gt;&lt;br&gt;&lt;/span&gt;&lt;/div&gt;&lt;div&gt;&lt;span style=&quot;text-align: left;&quot;&gt;&lt;br&gt;&lt;/span&gt;&lt;/div&gt;&lt;div&gt;&lt;div style=&quot;text-align: left;&quot;&gt;java 8006&lt;/div&gt;&lt;div style=&quot;text-align: left;&quot;&gt;java 8007&lt;br&gt;&lt;/div&gt;&lt;div style=&quot;text-align: left;&quot;&gt;java 8008&lt;br&gt;&lt;/div&gt;&lt;div style=&quot;text-align: left;&quot;&gt;java 8009&lt;br&gt;&lt;/div&gt;&lt;div style=&quot;text-align: left;&quot;&gt;java 8010&lt;/div&gt;&lt;/div&gt;" style="rounded=0;whiteSpace=wrap;html=1;" vertex="1" parent="U9QTnsyQGhCHoIQ6oHoL-1">
          <mxGeometry x="200" y="100" width="140" height="180" as="geometry" />
        </mxCell>
        <mxCell id="U9QTnsyQGhCHoIQ6oHoL-17" value="&lt;b&gt;云服务器 04&lt;/b&gt;&lt;div&gt;&lt;div&gt;&lt;br&gt;&lt;/div&gt;&lt;div&gt;&lt;span style=&quot;text-align: left;&quot;&gt;内网：172.17.0.12&lt;/span&gt;&lt;br&gt;&lt;/div&gt;&lt;/div&gt;&lt;div&gt;&lt;span style=&quot;text-align: left;&quot;&gt;公网：无&amp;nbsp;&amp;nbsp;&lt;/span&gt;&lt;span style=&quot;text-align: left;&quot;&gt;&lt;br&gt;&lt;/span&gt;&lt;/div&gt;&lt;div&gt;&lt;span style=&quot;text-align: left;&quot;&gt;&lt;br&gt;&lt;/span&gt;&lt;/div&gt;&lt;div&gt;&lt;span style=&quot;text-align: left;&quot;&gt;&lt;br&gt;&lt;/span&gt;&lt;/div&gt;&lt;div&gt;&lt;div style=&quot;text-align: left;&quot;&gt;测试环境&lt;/div&gt;&lt;/div&gt;" style="rounded=0;whiteSpace=wrap;html=1;" vertex="1" parent="U9QTnsyQGhCHoIQ6oHoL-1">
          <mxGeometry x="380" y="-110" width="130" height="170" as="geometry" />
        </mxCell>
        <mxCell id="U9QTnsyQGhCHoIQ6oHoL-18" value="..." style="rounded=1;whiteSpace=wrap;html=1;" vertex="1" parent="U9QTnsyQGhCHoIQ6oHoL-1">
          <mxGeometry x="780" y="-110" width="100" height="40" as="geometry" />
        </mxCell>
        <mxCell id="U9QTnsyQGhCHoIQ6oHoL-19" value="微信" style="rounded=1;whiteSpace=wrap;html=1;" vertex="1" parent="U9QTnsyQGhCHoIQ6oHoL-1">
          <mxGeometry x="780" y="-45" width="100" height="40" as="geometry" />
        </mxCell>
        <mxCell id="U9QTnsyQGhCHoIQ6oHoL-20" value="美团" style="rounded=1;whiteSpace=wrap;html=1;" vertex="1" parent="U9QTnsyQGhCHoIQ6oHoL-1">
          <mxGeometry x="777" y="30" width="100" height="40" as="geometry" />
        </mxCell>
        <mxCell id="U9QTnsyQGhCHoIQ6oHoL-21" value="饿了么" style="rounded=1;whiteSpace=wrap;html=1;" vertex="1" parent="U9QTnsyQGhCHoIQ6oHoL-1">
          <mxGeometry x="780" y="99" width="100" height="40" as="geometry" />
        </mxCell>
        <mxCell id="U9QTnsyQGhCHoIQ6oHoL-22" value="抖音" style="rounded=1;whiteSpace=wrap;html=1;" vertex="1" parent="U9QTnsyQGhCHoIQ6oHoL-1">
          <mxGeometry x="780" y="170" width="100" height="40" as="geometry" />
        </mxCell>
        <mxCell id="U9QTnsyQGhCHoIQ6oHoL-23" value="..." style="rounded=1;whiteSpace=wrap;html=1;" vertex="1" parent="U9QTnsyQGhCHoIQ6oHoL-1">
          <mxGeometry x="780" y="240" width="100" height="40" as="geometry" />
        </mxCell>
        <mxCell id="U9QTnsyQGhCHoIQ6oHoL-24" style="edgeStyle=orthogonalEdgeStyle;rounded=0;orthogonalLoop=1;jettySize=auto;html=1;entryX=0.453;entryY=-0.021;entryDx=0;entryDy=0;entryPerimeter=0;" edge="1" parent="U9QTnsyQGhCHoIQ6oHoL-1" source="U9QTnsyQGhCHoIQ6oHoL-5" target="U9QTnsyQGhCHoIQ6oHoL-2">
          <mxGeometry relative="1" as="geometry" />
        </mxCell>
        <mxCell id="U9QTnsyQGhCHoIQ6oHoL-25" value="内网IP" style="edgeLabel;html=1;align=center;verticalAlign=middle;resizable=0;points=[];" vertex="1" connectable="0" parent="U9QTnsyQGhCHoIQ6oHoL-24">
          <mxGeometry x="-0.1841" y="-2" relative="1" as="geometry">
            <mxPoint as="offset" />
          </mxGeometry>
        </mxCell>
        <mxCell id="U9QTnsyQGhCHoIQ6oHoL-26" style="edgeStyle=orthogonalEdgeStyle;rounded=0;orthogonalLoop=1;jettySize=auto;html=1;entryX=-0.009;entryY=0.529;entryDx=0;entryDy=0;entryPerimeter=0;" edge="1" parent="U9QTnsyQGhCHoIQ6oHoL-1" source="U9QTnsyQGhCHoIQ6oHoL-7" target="U9QTnsyQGhCHoIQ6oHoL-5">
          <mxGeometry relative="1" as="geometry" />
        </mxCell>
        <mxCell id="U9QTnsyQGhCHoIQ6oHoL-27" value="内网IP" style="edgeLabel;html=1;align=center;verticalAlign=middle;resizable=0;points=[];" vertex="1" connectable="0" parent="U9QTnsyQGhCHoIQ6oHoL-26">
          <mxGeometry x="-0.2536" relative="1" as="geometry">
            <mxPoint y="1" as="offset" />
          </mxGeometry>
        </mxCell>
      </root>
    </mxGraphModel>
  </diagram>
</mxfile>
